<?xml version="1.0" encoding="UTF-8" standalone="no"?>
<svg
   xmlns:dc="http://purl.org/dc/elements/1.1/"
   xmlns:cc="http://creativecommons.org/ns#"
   xmlns:rdf="http://www.w3.org/1999/02/22-rdf-syntax-ns#"
   xmlns:svg="http://www.w3.org/2000/svg"
   xmlns="http://www.w3.org/2000/svg"
   xmlns:sodipodi="http://sodipodi.sourceforge.net/DTD/sodipodi-0.dtd"
   xmlns:inkscape="http://www.inkscape.org/namespaces/inkscape"
   version="1.1"
   id="Calque_1"
   width="40.000004"
   height="40.609608"
   viewBox="0 0 40.000005 40.609607"
   overflow="visible"
   enable-background="new 0 0 597.6 670.7"
   xml:space="preserve"
   sodipodi:docname="franceRegions.svg"
   style="overflow:visible"
   inkscape:version="0.92.4 (5da689c313, 2019-01-14)"><metadata
   id="metadata169"><rdf:RDF><cc:Work
       rdf:about=""><dc:format>image/svg+xml</dc:format><dc:type
         rdf:resource="http://purl.org/dc/dcmitype/StillImage" /><dc:title /></cc:Work></rdf:RDF></metadata><defs
   id="defs167" /><sodipodi:namedview
   pagecolor="#ffffff"
   bordercolor="#666666"
   borderopacity="1"
   objecttolerance="10"
   gridtolerance="10"
   guidetolerance="10"
   inkscape:pageopacity="0"
   inkscape:pageshadow="2"
   inkscape:window-width="1493"
   inkscape:window-height="896"
   id="namedview165"
   showgrid="false"
   inkscape:zoom="0.92370266"
   inkscape:cx="-149.54288"
   inkscape:cy="-252.01472"
   inkscape:window-x="0"
   inkscape:window-y="0"
   inkscape:window-maximized="0"
   inkscape:current-layer="g162" />
<g
   id="g162"
   transform="translate(-280.48389,-314.30289)">
	<path
   d="m 314.17198,321.35828 -0.33467,0.26104 -0.2075,0.007 -0.38822,-0.17403 -0.26774,-0.22089 h -0.51539 l -0.0937,0.2075 -0.42169,0.0535 -0.26104,-0.54217 -0.23427,0.0201 v -0.23427 l -0.45515,-0.11379 -0.50871,-0.44846 -0.44183,0.0134 0.0669,-0.48862 -0.21412,-0.42838 v -0.3079 l 0.2008,-0.38822 -0.2008,-0.11379 -0.31459,0.32128 -0.12718,0.48193 -0.65595,0.29451 -0.40161,-0.12717 -0.21419,0.0469 0.0602,0.42838 -0.1004,0.26105 0.1004,0.23427 -0.3749,0.54217 -0.2075,0.0201 0.0201,1.07764 -0.0669,0.2075 -0.4083,-0.14057 -0.59572,0.30121 -0.0936,0.2008 0.24097,0.60911 -0.4083,0.16733 0.12048,0.18072 -0.0669,0.2075 0.18741,0.0937 -0.56894,0.76305 -0.0402,0.15395 -0.18749,0.16734 0.26105,0.62249 0.19411,0.12717 -0.22758,0.37484 -0.22088,0.0535 0.0335,0.64257 0.27443,0.11379 0.33467,0.41499 0.18742,0.62249 0.14725,-0.16733 0.2745,0.31459 0.37483,0.82329 0.94378,-0.12048 0.22095,0.1004 0.16733,-0.14725 0.46178,-0.0669 0.35476,-0.29451 0.28788,0.0402 v -0.007 l 0.26098,0.0535 0.0402,0.20749 0.2008,0.0736 -0.0268,0.21419 0.22088,0.0201 0.13387,0.17403 0.0737,0.22758 -0.20756,0.18072 0.1741,0.36145 0.68942,0.15395 0.22751,0.11378 v 0.21419 l 0.36145,-0.14056 0.087,-0.18741 0.49531,-0.29452 0.16734,0.13387 0.22751,-0.0736 0.0268,-0.62919 0.15395,-0.18072 0.21419,0.0268 0.17403,-0.24096 -0.0201,-0.1071 0.60917,-0.43507 0.52872,0.32129 0.42168,-0.12049 0.36814,0.27443 0.38829,-0.16733 0.62912,0.49531 0.0737,-0.0469 0.56894,0.37483 0.0335,0.68273 0.21412,-0.0134 0.15402,0.39491 0.2008,0.0402 -0.0602,0.22758 h 0.56895 l 0.2008,-0.0736 0.0402,-0.22758 0.21419,-0.0134 0.0134,-0.23427 0.16733,-0.14725 -0.21419,-0.58233 0.20081,-1.15797 -0.14726,-0.77644 0.44846,-1.05087 0.11379,-1.17804 0.78313,-1.0241 0.29445,-0.80321 -0.63588,-0.22758 -1.11111,-0.0402 -0.62919,-0.56225 -0.46854,0.31459 -0.52209,-0.0937 -0.19404,0.0937 -0.16733,-0.29451 -0.22758,-0.10709 -0.2075,0.12048 -0.0202,0.22088 -0.20749,-0.0535 -0.60241,-0.68943 -0.12718,-0.43507 -0.22751,-0.15395 z"
   id="path2"
   inkscape:connector-curvature="0"
   style="fill:#fbfaf9;stroke-width:0.06693441" />
	<path
   d="m 302.94708,314.37033 -1.2249,0.3079 -1.03079,0.32128 -0.43507,0.37483 v 1.35208 l 0.22088,0.26104 -0.2075,-0.12717 -0.0535,0.44176 0.0335,0.28782 0.17403,0.12048 -0.28112,0.1071 -0.0268,0.22758 0.22758,0.41499 -0.2075,-0.11379 -0.48862,0.66935 v 0 l 0.94378,0.80321 0.25435,0.63588 -0.22758,0.34805 0.1071,0.66265 -0.1071,0.60241 0.26774,0.62919 -0.3012,0.19411 0.12048,0.24096 0.42168,0.087 0.47524,-0.14057 0.68942,0.16734 0.16734,-0.12048 0.8166,0.47523 0.51539,0.0803 0.15395,-0.16733 0.18742,0.12048 0.60917,-0.22088 0.2008,0.0535 0.12711,0.18742 -0.0469,0.21419 0.29451,0.31459 0.70281,0.44846 0.56894,-0.76305 -0.18741,-0.0937 0.0669,-0.2075 -0.12048,-0.18072 0.4083,-0.16733 -0.24097,-0.60911 0.0936,-0.2008 0.59572,-0.30121 0.4083,0.14057 0.0669,-0.2075 -0.02,-1.07764 0.2075,-0.0201 0.3749,-0.54217 -0.1004,-0.23427 0.1004,-0.26105 -0.0602,-0.42838 h -0.0268 l -0.27443,-0.087 0.24765,-0.47524 -0.22757,-0.39491 0.15401,-0.48862 -0.20756,0.0469 -0.3079,-0.36814 -0.45515,0.0803 -0.40837,-0.0937 -0.16734,0.14725 -0.16057,-0.68273 -0.40837,-0.1004 -0.087,-0.2008 -0.21419,0.16064 -0.24097,-0.0803 -0.22757,-0.63588 0.0335,-0.22758 -0.29444,-0.32797 -0.44184,0.0335 -0.41499,0.28782 -0.22088,-0.0937 -0.21419,-0.39491 h -0.24759 l -0.10041,-0.2008 0.0803,-0.42838 -0.19404,-0.45516 z"
   id="path4"
   inkscape:connector-curvature="0"
   style="fill:#fbfaf9;stroke-width:0.06693441" />
	<path
   d="m 302.45846,323.12535 -0.16734,0.12048 -0.68942,-0.16734 -0.47524,0.14057 -0.42168,-0.087 -0.12048,-0.24096 -0.29452,0.7095 h -0.28781 l -0.18073,0.18742 0.13387,0.44177 0.28113,0.49531 0.0335,0.8166 0.46185,0.4083 0.0937,0.42169 0.16733,0.16064 0.23428,-0.0469 0.21412,0.79651 v 0 l 0.52215,-0.0602 0.14057,-0.20749 0.11378,0.19411 0.2075,-0.12718 0.28113,0.0402 0.0535,0.23427 0.3146,0.32129 -0.0402,0.2008 -0.2008,0.11379 0.68943,0.0535 0.84337,-0.20081 0.29451,-0.4016 0.0134,-0.43508 1.15796,-0.23427 -0.0335,-0.64257 0.22088,-0.0535 0.22758,-0.37484 -0.19411,-0.12717 -0.26105,-0.62249 0.18749,-0.16734 0.0402,-0.15395 -0.70282,-0.44846 -0.29451,-0.31459 0.0469,-0.21419 -0.12711,-0.18742 -0.2008,-0.0535 -0.60917,0.22088 -0.18742,-0.12048 -0.15395,0.16733 -0.51539,-0.0803 z"
   id="path6"
   inkscape:connector-curvature="0"
   style="fill:#fbfaf9;stroke-width:0.06693441" />
	<path
   d="m 308.75699,328.72776 -0.16734,0.14725 -0.22095,-0.1004 -0.94378,0.12048 -0.37483,-0.82329 -0.27436,-0.31459 -0.14726,0.16733 -0.18741,-0.62249 -0.33468,-0.41499 -0.27443,-0.11379 -1.15796,0.23427 -0.0134,0.43508 -0.29451,0.4016 0.50201,0.56895 0.0335,0.42838 -0.34805,0.36814 0.0803,0.22088 -0.12049,0.18072 -0.39491,0.24766 0.22758,0.21419 0.16733,0.52209 -0.21419,0.0469 -0.11378,0.18072 0.14725,0.48863 -0.12711,0.43507 0.2075,0.16064 0.23427,0.56894 0.0201,0.44177 0.16734,0.14726 -0.0201,0.44176 -0.10041,0.66935 0.43508,0.47523 0.48193,0.0134 0.21419,-0.12718 0.32128,0.27444 0.44846,-0.44847 0.5087,1.01071 0.58903,0.22089 0.12048,0.18072 -0.0335,0.41499 -0.28106,0.34806 v 0.22758 l 0.38822,0.24096 0.60241,-0.11378 0.15395,0.16064 0.42838,-0.28782 0.0267,-0.22758 0.1741,-0.14056 0.16057,0.13387 0.1741,-0.12718 0.18741,0.12049 0.12049,-0.17403 0.42838,0.57563 0.44176,-1.57296 0.44177,0.11379 0.40161,-0.0937 0.36144,0.24097 h 0.007 l 0.32135,0.58233 h 0.22088 v 0.22757 l 0.22088,-0.0134 0.30121,-0.32129 0.25435,0.12048 0.0268,0.20081 0.29445,-0.007 0.40837,-0.24765 0.35475,-0.48862 -0.0134,-0.007 0.26774,-0.91031 0.88353,-0.8099 -0.0602,-0.72959 0.64264,-0.44846 0.88353,-1.08433 -0.0201,-0.2142 0.17409,-0.16064 -0.32128,-0.26774 0.0736,-0.22088 0.28113,-0.32128 0.29444,-0.0402 0.0202,0.007 -0.15401,-0.39491 -0.21413,0.0134 -0.0335,-0.68273 -0.56894,-0.37483 -0.0737,0.0469 -0.62912,-0.49531 -0.38829,0.16733 -0.36813,-0.27443 -0.42169,0.12049 -0.52872,-0.32129 -0.60917,0.43507 0.0201,0.1071 -0.17403,0.24096 -0.21419,-0.0268 -0.15394,0.18072 -0.0268,0.62919 -0.22751,0.0736 -0.16733,-0.13387 -0.49532,0.29452 -0.087,0.18741 v 0 l 0.20749,-0.12717 -0.20749,0.12717 v 0 l -0.36145,0.14056 v -0.21419 l -0.22751,-0.11378 -0.68942,-0.15395 -0.1741,-0.36145 0.20756,-0.18072 -0.0737,-0.22758 -0.13387,-0.17403 -0.22088,-0.0201 0.0268,-0.21419 -0.2008,-0.0736 -0.0402,-0.20749 -0.26098,-0.0535 v 0.007 l -0.28788,-0.0402 -0.35476,0.29451 z"
   id="path8"
   inkscape:connector-curvature="0"
   style="fill:#fbfaf9;stroke-width:0.06693441" />
	<path
   d="m 303.52272,328.04503 -0.68943,-0.0535 0.2008,-0.11379 0.0402,-0.2008 -0.3146,-0.32129 -0.0535,-0.23427 -0.28113,-0.0402 -0.2075,0.12718 -0.11378,-0.19411 -0.14057,0.20749 -0.52215,0.0602 v 0 l -0.21412,-0.79651 -0.23428,0.0469 -0.16733,-0.16064 -0.0937,-0.42169 -0.46185,-0.4083 -0.0335,-0.8166 -0.28113,-0.49531 -0.44846,0.52208 0.0201,0.2075 -0.44846,0.1004 -0.21419,-0.12048 -0.40161,0.24096 -0.44846,0.0803 -0.18072,0.19411 0.0134,0.24096 0.35475,0.32798 -0.0134,0.34136 0.0402,0.34137 -0.56894,0.38822 0.0803,0.56225 h 0.007 l 0.15395,0.28782 -0.0335,0.13386 v 0.007 l -0.15395,0.15395 0.13387,0.16733 0.0268,0.415 -0.46854,0.80321 -0.24096,0.0736 -0.0469,0.26773 -0.57563,0.33468 -0.2075,-0.0201 0.0335,0.24765 -0.45516,-0.19411 -0.0602,0.18073 -0.12717,0.69611 -0.42838,1.15128 v 0.007 l 0.4083,0.24096 0.0201,0.24097 0.22088,-0.0201 0.1004,0.45515 0.2075,0.1071 0.75636,-0.0335 -0.11379,-0.21419 0.4083,0.22088 0.0134,0.23427 0.69611,0.98394 -0.0669,0.43507 0.35475,0.32798 h 0.21419 l 0.20081,0.4083 0.18741,0.0937 -0.12048,0.21419 0.2008,0.0803 0.43508,-0.0803 0.12717,0.18072 0.2075,-0.21419 0.86345,-0.0803 0.14056,-0.18742 0.99733,0.20081 0.20756,-0.0602 0.36814,0.0134 v 0 l 0.26098,-0.44846 0.65595,-0.0736 0.12718,-0.18072 -0.12718,-0.4016 0.16734,-0.14057 0.63588,-0.21419 0.36144,-0.28112 h 0.30121 l 0.1004,-0.66935 0.0201,-0.44176 -0.16734,-0.14726 -0.0201,-0.44177 -0.23427,-0.56894 -0.20749,-0.16064 0.1271,-0.43507 -0.14725,-0.48863 0.11379,-0.18072 0.21419,-0.0469 -0.16734,-0.52209 -0.22758,-0.21419 0.39492,-0.24766 0.12048,-0.18072 -0.0803,-0.22088 0.34806,-0.36814 -0.0335,-0.42838 -0.50201,-0.56895 z"
   id="path10"
   inkscape:connector-curvature="0"
   style="fill:#fbfaf9;stroke-width:0.06693441" />
	<path
   d="m 303.41562,334.67153 -0.16734,0.14057 0.12718,0.4016 -0.12718,0.18072 -0.65595,0.0736 -0.26098,0.44846 v 0 l 0.0803,0.29451 c 0.18749,0.12049 0.3749,0.24097 0.55563,0.36814 l 0.27443,0.62249 -0.0402,0.3079 0.17403,0.5087 -0.70281,0.64927 0.33467,0.41499 0.0937,0.41499 -0.13387,0.18742 0.14719,1.04418 -0.46855,-0.15395 -0.0468,0.26104 -0.56894,0.7162 0.13386,0.16734 -0.17409,0.14725 -0.0201,0.25442 -0.23427,0.087 0.11379,0.24766 -0.24766,0.14719 0.0736,0.40837 0.28788,0.45515 -0.13387,0.42838 0.24759,0.37483 0.38829,-0.24096 0.47523,0.12048 0.28782,-0.36814 0.22758,-0.6761 0.35475,-0.32129 0.39491,0.30121 0.0936,0.31459 0.18073,0.12048 -0.0402,0.22758 0.19404,0.38152 0.52209,-1.19149 0.13387,0.16733 0.58233,-0.50201 0.16733,0.12718 0.11379,0.42838 0.48193,0.0936 0.0134,-0.21419 0.21412,0.0202 0.6761,0.57563 0.15395,0.68273 0.52878,1.07095 0.58227,0.37484 0.52878,-0.32791 0.0134,0.23427 0.18741,-0.16734 h 0.2075 l 0.45522,0.25435 -0.007,-0.27443 0.43508,0.0536 0.26773,0.32129 0.65596,-0.29451 0.18072,0.10716 0.18742,-0.16734 0.0335,0.43508 0.70281,0.0602 0.007,0.21419 0.39485,0.1741 0.32135,-0.36145 0.17403,-0.007 0.0736,-0.0134 0.0134,-0.35482 -0.74966,-0.42831 -0.11373,-0.2008 0.24759,-0.38153 0.30797,0.1071 0.18742,-0.18742 -0.22089,-0.16734 0.18742,-0.5087 0.42838,-0.0268 0.0267,-0.25435 0.0737,-0.22758 0.41493,-0.0936 0.0669,-0.21419 0.95047,-0.28782 0.22758,0.087 0.0267,-0.44177 -0.32791,-0.23427 -0.12717,-0.31459 0.11379,-0.28782 0.58232,0.26098 0.15395,-0.14726 0.45516,-0.087 v 0 -0.007 l 1.45247,-0.62249 0.14726,-0.2745 -0.087,-0.19404 0.20749,-0.38829 -0.54886,-0.38822 -0.16734,-0.4083 0.0535,-0.23427 -0.42169,-0.17409 -0.21419,-0.20081 -0.0335,-0.24096 0.007,-0.007 0.62235,-0.60911 0.0736,-0.23427 -0.25435,-0.34136 -0.58233,-0.55556 0.16734,-0.46184 -0.27443,-0.4083 0.0402,-0.21419 -0.25435,-0.0535 -0.63588,0.0469 -0.38153,0.31459 -0.25435,-0.10709 -0.21419,0.43507 0.18073,0.22758 -0.52209,0.4083 -0.52878,0.0669 v -0.007 l 0.0402,-0.37483 0.43508,-0.26774 0.0803,-0.52209 -0.26105,-0.14725 -0.35475,0.48862 -0.40837,0.24765 -0.29444,0.007 -0.0268,-0.20081 -0.25435,-0.12048 -0.30121,0.32129 -0.22088,0.0134 v -0.22757 h -0.22089 l -0.32135,-0.58233 h -0.007 l -0.36145,-0.24097 -0.4016,0.0937 -0.44177,-0.11379 -0.44177,1.57296 -0.42838,-0.57563 -0.12048,0.17403 -0.18742,-0.12049 -0.17409,0.12718 -0.16058,-0.13387 -0.17409,0.14056 -0.0267,0.22758 -0.42838,0.28782 -0.15395,-0.16064 -0.60241,0.11378 -0.38822,-0.24096 V 336.539 l 0.28106,-0.34806 0.0335,-0.41499 -0.12048,-0.18072 -0.58902,-0.22089 -0.5087,-1.01071 -0.44846,0.44847 -0.32129,-0.27444 -0.21419,0.12718 -0.48193,-0.0134 -0.43507,-0.47523 h -0.3012 l -0.36145,0.28112 z m 8.166,10.52209 -0.18066,0.26774 -0.3012,0.0937 -0.14726,-0.16734 0.0936,-0.22758 0.20081,-0.16733 z"
   id="path12"
   inkscape:connector-curvature="0"
   style="fill:#fbfaf9;stroke-width:0.06693441" />
	<path
   d="m 302.33128,335.91651 -0.36814,-0.0134 -0.20756,0.0602 -0.99732,-0.20081 -0.14056,0.18742 -0.86346,0.0803 -0.2075,0.21419 -0.12717,-0.18072 -0.43507,0.0803 -0.20081,-0.0803 0.12048,-0.21419 -0.18741,-0.0937 -0.20081,-0.4083 h -0.21419 l -0.35475,-0.32798 0.0669,-0.43507 -0.69612,-0.98394 -0.0134,-0.23427 -0.4083,-0.22088 0.11379,0.21419 -0.75636,0.0335 -0.20749,-0.1071 -0.10041,-0.45515 -0.22088,0.0201 -0.0201,-0.24097 -0.4083,-0.24096 -0.50201,0.44846 -0.16733,-0.17403 -0.72959,0.0134 -0.42169,0.0602 -0.27443,0.36144 -0.92369,0.0602 0.16733,0.42838 0.32129,0.30789 0.35475,1.34539 -0.0201,0.56224 0.18742,0.14726 -0.68273,0.33467 -0.17403,-0.13387 -0.48862,0.0201 0.1004,-0.22088 -0.66265,0.26104 -0.34137,0.7229 0.22089,0.0669 0.30789,0.60241 -0.20749,0.0335 0.12048,0.4016 -0.22088,0.43508 -0.35476,0.24103 0.0937,0.32791 0.58902,0.36814 0.78314,0.83668 0.16064,0.56225 v 0.007 l 0.0402,0.2008 -0.16064,0.25442 -0.18742,-0.58909 -0.80321,-0.78982 -0.0736,-0.2075 -0.22082,0.42838 -0.46184,3.7751 0.29451,-0.58902 0.33467,0.38822 0.0201,0.21419 -0.48193,-0.0669 -0.24096,0.5154 0.007,0.35475 -0.82329,3.76171 -0.28782,0.53548 h -0.007 l -0.34137,0.47523 -0.47523,0.34806 0.43507,0.20081 0.0402,0.24096 0.16734,-0.16058 0.49531,0.10041 0.1071,0.21412 -0.14057,0.44183 -0.1941,0.17403 0.0937,0.21419 0.29451,0.0736 0.0335,-0.27443 0.22089,-0.0669 0.0201,0.25436 0.44176,0.23427 0.72289,0.28112 0.47524,-0.0268 0.19411,0.35482 0.58902,0.48186 0.17403,-0.12049 0.17403,0.10717 0.44846,-0.23427 0.007,0.007 v -0.007 l 0.0937,-0.64264 0.12048,-0.21419 0.25436,-0.0602 -0.0335,-0.22088 0.6091,-0.69612 -0.0602,-0.22757 0.2008,-0.1071 -0.0402,-0.54899 h -0.21419 l 0.1071,-0.2075 -0.18742,-0.43507 v 0 l -0.49531,-0.0268 -0.12049,-0.2008 0.32129,-0.83668 -0.0335,-0.47524 0.69612,-0.20749 0.0536,0.22751 0.18741,-0.1004 0.0201,-0.21419 v -0.007 l 0.28113,0.0469 0.10709,-0.18742 0.62249,0.0535 0.38153,-0.21419 0.64257,0.0736 0.2008,-0.1004 0.26774,-0.35475 0.21419,0.0201 -0.1004,-0.2075 0.33467,-0.40836 -0.18072,-0.1071 V 345.488 l 0.56225,-0.14726 -0.20081,-0.68273 0.25436,-0.24096 0.35475,-0.48193 0.45515,-0.25435 -0.0535,-0.26774 0.34137,-0.24103 0.10709,-0.4016 0.0536,-0.38146 0.60241,-0.0536 0.5087,0.45522 0.39492,-0.2008 0.5087,0.0133 0.24766,-0.14719 -0.11379,-0.24766 0.23427,-0.087 0.0201,-0.25442 0.17409,-0.14719 -0.13386,-0.16733 0.56894,-0.7162 0.0468,-0.26105 0.46855,0.15395 -0.14719,-1.04417 0.13387,-0.18742 -0.0937,-0.41499 -0.33467,-0.415 0.70281,-0.64926 -0.17403,-0.5087 0.0402,-0.3079 -0.27443,-0.62249 c -0.18073,-0.12718 -0.36814,-0.24766 -0.55563,-0.36814 z m -8.03882,14.32397 0.007,0.20749 -0.16733,-0.12048 z"
   id="path14"
   inkscape:connector-curvature="0"
   style="fill:#fbfaf9;stroke-width:0.06693441" />
	<path
   d="m 292.43168,321.93392 -0.4016,0.17402 -0.48193,-0.78982 0.18742,-0.58902 -0.0803,-0.2075 -0.48863,-0.0535 -0.18741,0.13387 -0.48862,0.0335 -0.85676,-0.34806 -0.0134,0.21419 0.24766,0.13387 0.0402,0.36814 -0.14726,0.15395 0.19411,0.76305 0.63588,0.68942 -0.1004,0.75636 0.14725,0.21419 -0.0402,0.44846 -0.16733,0.42838 0.31459,0.70281 0.19411,0.10041 0.18741,-0.12049 -0.0736,0.22089 -0.52879,0.0602 0.35476,0.7162 0.2008,0.0669 0.53547,-0.35475 0.4083,0.17403 0.64927,0.0602 0.24766,0.28112 0.18072,-0.12048 0.18741,0.12718 0.50871,-0.24766 h 0.68273 l 0.0535,-0.2075 0.2075,0.0201 0.14726,0.45516 0.24096,0.11379 v 0.22088 l 0.22758,0.007 0.82329,-0.43507 0.2075,0.11379 0.12048,0.62918 0.54217,0.37483 0.21419,-0.0736 0.24096,0.26104 0.23427,0.0536 h 0.007 -0.007 l -0.0803,-0.56225 0.56894,-0.38822 -0.0402,-0.34137 0.0134,-0.34136 -0.35475,-0.32798 -0.0134,-0.24096 0.18072,-0.19411 0.44846,-0.0803 0.40161,-0.24096 0.21419,0.12048 0.44846,-0.1004 -0.0201,-0.2075 0.44846,-0.52208 -0.13387,-0.44177 0.18073,-0.18742 h 0.28781 l 0.29452,-0.7095 0.3012,-0.19411 -0.26774,-0.62919 0.1071,-0.60241 -0.1071,-0.66265 0.22758,-0.34805 -0.25435,-0.63588 -0.94378,-0.80321 v 0 l -0.0134,0.0201 -0.8166,0.56894 -1.65998,0.41499 -1.07095,0.57564 -0.43507,0.95047 0.12717,0.16733 0.66266,0.14726 0.0134,0.007 -0.11379,0.0469 -0.52878,0.12048 -0.36144,0.31459 -0.72959,0.2075 -0.63588,-0.26774 -0.93708,-0.1071 z"
   id="path16"
   inkscape:connector-curvature="0"
   style="fill:#fbfaf9;stroke-width:0.06693441" />
	<path
   d="m 288.11442,325.13338 -0.26774,0.0201 -0.80991,0.66934 -0.0669,-0.27443 -0.30121,-0.19411 -0.007,-0.23427 -0.34137,-0.58902 -0.22088,-0.0469 0.0469,-0.21419 -0.22757,0.0268 -0.12718,0.22088 0.1004,-0.49531 -0.35475,0.24096 -0.0402,-0.26773 -0.66265,0.27443 -0.1071,-0.18073 -0.34136,0.27443 -0.0268,0.46185 -0.24096,0.0402 -0.36814,-0.22757 -0.21419,0.0468 -0.0468,0.25435 -0.16734,-0.2008 -0.12048,0.24096 -0.007,-0.48862 -1.08434,0.32798 -0.11379,-0.2008 -0.76305,0.41499 0.19411,0.1004 -0.62919,-0.0669 -0.14056,0.18072 -0.10709,0.67604 0.13387,0.17403 0.20749,-0.087 0.19411,0.0937 0.9237,-0.27443 -0.28113,0.13387 -0.0402,0.25435 0.44846,-0.1071 -0.0335,0.21419 0.22088,0.0937 -0.23427,0.0469 0.47523,0.20081 -0.44846,-0.1071 -0.10709,-0.18741 -0.28113,0.0803 -0.43507,-0.087 -0.12718,-0.18072 -0.11378,0.27443 0.18072,0.39491 0.13387,-0.20749 0.20749,0.0201 0.4083,0.23427 0.0669,0.24096 -0.12048,0.18742 -0.18073,-0.1004 -0.95047,0.0937 -0.11378,0.18741 0.71619,0.26774 0.28113,0.46854 -0.0803,0.41499 0.54886,0.0469 0.27443,-0.31459 v -0.0268 -0.007 l -0.0602,-0.21419 0.0803,-0.0134 0.0268,-0.23427 0.1071,0.21419 -0.13387,0.0201 -0.0201,0.23427 0.22088,0.14726 0.34806,-0.12718 0.35476,0.44846 0.21419,-0.0469 v -0.21419 l 0.0268,0.2075 v 0.007 l 0.19411,-0.0736 -0.0469,0.21419 0.21419,0.0469 0.28782,-0.11378 0.0134,-0.22758 0.0536,0.57564 0.18741,0.12048 0.2075,-0.1004 v -0.007 l -0.0335,-0.43507 0.0402,0.22758 0.22089,0.0402 -0.16065,0.16064 0.11379,0.2008 0.27443,0.11379 0.20081,-0.087 -0.18742,0.0937 0.0268,0.2075 0.16065,0.21419 -0.0602,0.27443 0.16064,0.17403 -0.087,-0.21419 0.20081,-0.18072 0.24096,-0.0536 0.18072,0.13387 -0.0937,-0.44177 0.23427,0.36814 0.11379,-0.19411 0.27443,0.0469 0.16064,0.18072 -0.14726,0.18742 -0.47523,-0.0602 0.36144,0.28113 0.93039,-0.0736 0.2075,0.11379 -0.22758,0.0134 0.12048,0.19411 1.15797,-0.34137 0.0268,-0.44846 0.39492,-0.25435 0.98393,-0.0335 0.12048,-0.21419 0.67604,-0.29451 0.5154,0.26774 0.0335,-0.16064 0.26774,-0.64927 0.41499,-0.16733 -0.14056,-1.30522 0.11379,-0.17403 0.007,-0.91031 -0.4083,-0.17403 -0.53547,0.35475 -0.2008,-0.0669 -0.35476,-0.7162 h -0.87014 l 0.0201,-0.42169 -0.24097,0.0536 -0.3012,0.28782 0.19411,0.42168 -0.17403,-0.14056 -0.13387,-0.33467 h -0.21419 v 0.14056 l -0.3079,0.0268 -0.0736,-0.23428 -0.22757,0.1071 z"
   id="path18"
   inkscape:connector-curvature="0"
   style="fill:#fbfaf9;stroke-width:0.06693441" />
	<path
   d="m 290.13583,329.41718 -0.12048,0.21419 -0.98393,0.0335 -0.39492,0.25435 -0.0268,0.44846 -1.15797,0.34137 -0.33467,0.32797 0.18073,0.46185 0.45515,0.0803 0.15395,0.14726 0.36814,-0.27443 0.54217,-0.0469 -0.50871,0.19411 -0.0469,0.50201 -0.22758,0.0937 0.44846,0.16064 0.36145,0.37484 -0.58902,0.62249 0.0335,0.33467 0.78314,0.917 0.15395,0.52878 0.6091,0.5087 0.36145,0.0803 0.11378,0.26774 0.45516,0.087 0.34806,0.28781 0.0535,-0.20749 0.21419,0.0335 0.66265,-0.26104 -0.1004,0.22088 0.48862,-0.0201 0.17403,0.13387 0.68273,-0.33467 -0.18741,-0.14726 0.0201,-0.56224 -0.35475,-1.34539 -0.32129,-0.30789 -0.16733,-0.42838 0.92369,-0.0602 0.27443,-0.36144 0.42169,-0.0602 0.72958,-0.0134 0.16734,0.17403 0.50201,-0.44846 v -0.007 l 0.42838,-1.15128 0.12717,-0.69611 0.0602,-0.18073 0.45516,0.19411 -0.0335,-0.24765 0.2075,0.0201 0.57563,-0.33468 0.0469,-0.26773 0.24096,-0.0736 0.46854,-0.80321 -0.0268,-0.415 -0.13387,-0.16733 0.15395,-0.15395 v -0.007 l 0.0335,-0.13386 -0.15395,-0.28782 h -0.007 l -0.23427,-0.0536 -0.24096,-0.26104 -0.21419,0.0736 -0.54217,-0.37483 -0.12048,-0.62918 -0.2075,-0.11379 -0.82329,0.43507 -0.22758,-0.007 v -0.22088 l -0.24096,-0.11379 -0.14726,-0.45516 -0.2075,-0.0201 -0.0535,0.2075 h -0.68273 l -0.50871,0.24766 -0.18741,-0.12718 -0.18072,0.12048 -0.24766,-0.28112 -0.64927,-0.0602 -0.007,0.91031 -0.11379,0.17403 0.14056,1.30522 -0.41499,0.16733 -0.26774,0.64927 -0.0335,0.16064 -0.5154,-0.26774 z"
   id="path20"
   inkscape:connector-curvature="0"
   style="fill:#fbfaf9;stroke-width:0.06693441" />
	<path
   d="m 300.69808,342.79074 -0.5087,-0.45522 -0.60241,0.0536 -0.0536,0.38146 -0.10709,0.4016 -0.34137,0.24103 0.0535,0.26774 -0.45515,0.25435 -0.35475,0.48193 -0.25436,0.24096 0.20081,0.68273 -0.56225,0.14726 v 0.22088 l 0.18072,0.1071 -0.33467,0.40837 0.1004,0.20749 -0.21419,-0.0201 -0.26774,0.35475 -0.2008,0.10041 -0.64257,-0.0736 -0.38153,0.21419 -0.62249,-0.0535 -0.10709,0.18742 -0.28113,-0.0469 v 0.007 l -0.0201,0.21419 -0.18741,0.1004 -0.0536,-0.22751 -0.69612,0.20749 0.0335,0.47524 -0.32129,0.83668 0.12049,0.2008 0.49531,0.0268 v 0 l 0.18742,0.43507 -0.1071,0.2075 h 0.21419 l 0.0402,0.54886 -0.2008,0.10709 0.0602,0.22758 -0.6091,0.69612 0.0335,0.22088 -0.25436,0.0602 -0.12048,0.21419 -0.0937,0.64263 v 0.007 l 0.84338,0.74966 0.917,-0.12717 0.18742,0.16064 0.74297,-0.0134 0.46854,0.0268 0.17403,-0.16734 -0.0268,-0.48869 0.18073,-0.1004 0.5087,0.1741 0.74966,0.19404 0.36145,0.32798 0.48193,-0.0335 0.42838,0.56894 0.0736,-0.22088 0.25435,-0.0134 0.79652,0.38153 -0.14726,0.36814 0.66265,0.19404 0.1741,0.42838 0.24096,0.0134 0.33467,-0.30121 0.24097,-0.0134 0.70957,0.16733 0.34806,0.26774 0.46854,-0.0335 v -0.22751 l 0.6091,-0.31459 0.47524,-0.0871 0.64263,0.1741 -0.43507,-0.54224 -0.0268,-1.31854 0.0335,-0.74304 0.42169,-0.80321 0.2008,-0.20081 0.40837,-0.30789 h 0.5087 l 0.50201,-0.54224 0.82329,-0.59565 0.62919,-0.18072 0.22088,0.36814 0.22758,0.0535 h 0.0134 l 0.28782,-0.44177 0.43507,-0.13387 -0.0737,-0.2075 0.31459,-0.36144 0.24766,0.0669 0.14056,-0.79652 0.63588,-0.68266 -0.47524,-0.48193 -0.0136,-0.40843 -0.19405,-0.34137 -0.45522,-0.25435 h -0.20749 l -0.18742,0.16734 -0.0134,-0.23427 -0.52878,0.32797 -0.58226,-0.37483 -0.52878,-1.07095 -0.15395,-0.68273 -0.67611,-0.57564 -0.21419,-0.0201 -0.0134,0.21419 -0.48193,-0.0936 -0.11379,-0.42838 -0.16734,-0.12717 -0.58233,0.50201 -0.13386,-0.16734 -0.52209,1.1915 -0.19405,-0.38153 0.0402,-0.22757 -0.18072,-0.12049 -0.0938,-0.31472 -0.39492,-0.30121 -0.35475,0.32129 -0.22758,0.6761 -0.28781,0.36814 -0.47524,-0.12048 -0.38828,0.24096 -0.24759,-0.37483 0.13386,-0.42838 -0.28788,-0.45515 -0.0736,-0.40837 -0.5087,-0.0133 z"
   id="path22"
   inkscape:connector-curvature="0"
   style="fill:#fbfaf9;stroke-width:0.06693441" />
	<path
   d="m 317.83999,342.77729 -0.45516,-0.0201 -0.39484,-0.24766 -0.0602,-0.49531 -0.20749,-0.007 -0.1741,-0.39491 v 0 l -0.45515,0.087 -0.15395,0.14725 -0.58233,-0.26098 -0.11379,0.28782 0.12718,0.31459 0.32791,0.23427 -0.0267,0.44177 -0.22758,-0.087 -0.95047,0.28781 -0.0669,0.21419 -0.41499,0.0937 -0.0737,0.22757 -0.0267,0.25435 -0.42838,0.0268 -0.18742,0.5087 0.22088,0.16733 -0.18741,0.18742 -0.30797,-0.10709 -0.24759,0.38152 0.11372,0.20081 0.74967,0.42831 -0.0134,0.35482 -0.0736,0.0134 -0.17403,0.007 -0.32135,0.36144 -0.39478,-0.17403 -0.007,-0.21419 -0.70281,-0.0602 -0.0335,-0.43507 -0.18741,0.16733 -0.18066,-0.10716 -0.65596,0.29451 -0.26773,-0.32128 -0.43508,-0.0536 0.007,0.2745 0.19405,0.34137 0.0134,0.40836 0.47524,0.48193 -0.63588,0.68266 -0.14056,0.79652 -0.24766,-0.0669 -0.31459,0.36145 0.0737,0.20749 -0.43507,0.13387 -0.28782,0.44177 1.07765,0.0335 0.14725,0.18741 -0.0335,0.20757 0.27444,0.0669 0.72958,-0.087 -0.1674,-0.17409 0.0936,-0.18742 0.20756,0.0201 0.34806,0.40837 0.99063,-0.11379 0.29444,0.66258 0.72959,0.18073 0.2075,-0.0669 0.0134,0.0134 0.46185,0.26774 -0.0268,0.20749 0.66934,-0.19404 0.44846,0.12048 0.087,0.21419 0.15395,-0.41499 0.55562,0.0937 0.007,-0.21419 0.42169,-0.0937 0.2008,-0.18742 0.28782,0.0268 0.16734,-0.40837 -0.26774,-0.12048 0.46185,-0.6091 0.4083,-0.0536 0.32797,-0.58226 0.42838,-0.2008 0.0803,-0.3146 1.08434,-0.58902 0.0402,-0.54217 0.46178,-0.64919 0.15395,-0.32798 -0.3012,-0.39492 -0.89023,0.3146 -0.68942,-0.36814 -0.47524,-0.0937 -0.46185,-0.55556 -0.0134,-0.007 0.14725,-0.3749 -0.29451,-0.4083 0.16734,-0.13387 0.1004,-0.44846 v -0.007 l 0.0134,-0.0134 0.13387,-0.16064 0.26773,0.007 z m -5.86346,6.68005 0.24766,-0.1004 -0.16734,0.28113 -0.24103,0.087 -0.34136,-0.32128 0.0402,-0.25435 h 0.3012 z"
   id="path24"
   inkscape:connector-curvature="0"
   style="fill:#fbfaf9;stroke-width:0.06693441" />
	<path
   d="m 285.20277,331.28465 0.29451,-0.0937 -0.38153,-0.25435 -0.21419,0.0268 0.0669,0.24765 z"
   id="path26"
   inkscape:connector-curvature="0"
   style="fill:#fbfaf9;stroke-width:0.06693441" />
	<path
   d="m 290.30317,336.56578 v 0 l -0.007,0.007 0.33467,0.3012 0.22088,-0.0937 -0.4083,-0.26098 z"
   id="path28"
   inkscape:connector-curvature="0"
   style="fill:#eff6f2;stroke-width:0.06693441" />
	<path
   d="m 290.97921,337.73044 -0.38822,-0.25436 -0.12718,0.2075 0.48193,0.84344 0.1004,-0.24103 z"
   id="path30"
   inkscape:connector-curvature="0"
   style="fill:#eff6f2;stroke-width:0.06693441" />
	
	
		<line
   x1="317.70612"
   y1="343.65414"
   x2="317.71951"
   y2="343.63406"
   id="line34"
   style="fill:none;stroke:#333333;stroke-width:0.13386881;stroke-linecap:round;stroke-linejoin:round" />
	<polyline
   points="206.4,540    203.9,538.2 206.3,536.9 206.4,540  "
   id="polyline36"
   style="fill:none;stroke:#666666;stroke-width:2;stroke-linecap:round;stroke-linejoin:round"
   transform="matrix(0.06693441,0,0,0.06693441,280.48389,314.30339)" />
	<polyline
   points="122.2,530.4    128.7,533.4 129.3,537 131.8,534.601 139.2,536.101 140.8,539.3 138.7,545.9 135.8,548.5 137.2,551.7 141.6,552.8 142.1,548.7    145.4,547.7 145.7,551.5 152.3,555 163.1,559.2 170.2,558.8 173.1,564.101 181.9,571.3 184.5,569.5 187.1,571.101 193.8,567.601    193.9,567.7 206.5,578.9 220.2,577 223,579.4 234.1,579.2 241.1,579.601 243.7,577.101 243.3,569.8 246,568.3 253.6,570.9    264.8,573.8 270.2,578.7 277.4,578.2 283.8,586.7 284.9,583.4 288.7,583.2 300.6,588.9 298.4,594.4 308.3,597.3 310.9,603.7    314.5,603.9 319.5,599.4 323.1,599.2 333.7,601.7 338.9,605.7 345.9,605.2 345.9,601.801 355,597.101 362.1,595.8 371.7,598.4  "
   id="polyline38"
   style="fill:none;stroke:#666666;stroke-width:2;stroke-linecap:round;stroke-linejoin:round"
   transform="matrix(0.06693441,0,0,0.06693441,280.48389,314.30339)" />
	<polyline
   points="586.8,498.101    587.4,490 594.3,480.301 596.6,475.4 592.1,469.5 578.8,474.2 568.5,468.7 561.4,467.3 554.5,459 554.3,458.9 556.5,453.3    552.1,447.2 554.6,445.2 556.1,438.5 556.1,438.4 556.3,438.2 558.3,435.8 562.3,435.9 558.1,425.4 551.3,425.101 545.4,421.4    544.5,414 541.4,413.9 538.8,408 538.8,407.9 560.5,398.601 562.7,394.5 561.4,391.601 564.5,385.8 556.3,380 553.8,373.9    554.6,370.4 548.3,367.8 545.1,364.8 544.6,361.2 544.7,361.101 554,352 555.1,348.5 551.3,343.4 542.6,335.101 545.1,328.2    541,322.1 541.6,318.9 537.8,318.1 528.3,318.8 522.6,323.5 518.8,321.9 515.6,328.4 518.3,331.8 510.5,337.9 502.6,338.9    502.6,338.8 503.2,333.2 509.7,329.2 510.9,321.4 507,319.2 506.8,319.1 510.8,305.5 524,293.4 523.1,282.5 532.7,275.8    545.9,259.6 545.6,256.4 548.2,254 543.4,250 544.5,246.7 548.7,241.9 553.1,241.3 553.4,241.4 556.4,242 555.5,245.4 564,245.4    567,244.3 567.6,240.9 570.8,240.7 571,237.2 573.5,235 570.3,226.3 573.3,209 571.1,197.4 577.8,181.7 579.5,164.1 591.2,148.8    595.6,136.8 586.1,133.4 569.5,132.8 560.1,124.4 553.1,129.1 545.3,127.7 542.4,129.1 539.9,124.7 536.5,123.1 533.4,124.9    533.1,128.2 530,127.4 521,117.1 519.1,110.6 515.7,108.3 503.3,105.4 498.3,109.3 495.2,109.4 489.4,106.8 485.4,103.5    477.7,103.5 476.3,106.6 470,107.4 466.1,99.3 462.6,99.6 462.6,96.1 455.8,94.4 448.2,87.7 441.6,87.9 442.6,80.6 439.4,74.2    439.4,69.6 442.4,63.8 439.4,62.1 434.7,66.9 432.8,74.1 423,78.5 417,76.6 413.8,77.3 413.4,77.3 409.3,76 413,68.9 409.6,63    411.9,55.7 408.8,56.4 404.2,50.9 397.4,52.1 391.3,50.7 388.8,52.9 386.4,42.7 380.3,41.2 379,38.2 375.8,40.6 372.2,39.4    368.8,29.9 369.3,26.5 364.9,21.6 358.3,22.1 352.1,26.4 348.8,25 345.6,19.1 341.9,19.1 340.4,16.1 341.6,9.7 338.7,2.9 335.6,1     "
   id="polyline40"
   style="fill:none;stroke:#666666;stroke-width:2;stroke-linecap:round;stroke-linejoin:round"
   transform="matrix(0.06693441,0,0,0.06693441,280.48389,314.30339)" />
	<polyline
   points="471,238.3    465.6,240.4 465.6,237.2 462.2,235.5 451.9,233.2 449.3,227.8 452.4,225.1 451.3,221.7 449.3,219.1 446,218.8 446.4,215.6    443.4,214.5 442.8,211.4 438.9,210.6 438.9,210.7 434.6,210.1 429.3,214.5 422.4,215.5 419.9,217.7 416.6,216.2 402.5,218    396.9,205.7 392.8,201 390.6,203.5 387.8,194.2 382.8,188 378.7,186.3  "
   id="polyline42"
   style="fill:none;stroke:#8ca2c0;stroke-width:2;stroke-linecap:round;stroke-linejoin:round"
   transform="matrix(0.06693441,0,0,0.06693441,280.48389,314.30339)" />
	<polyline
   points="378.7,186.3    378.2,176.7 381.5,175.9 384.9,170.3 382,168.4 378.1,159.1 380.9,156.6 381.5,154.3  "
   id="polyline44"
   style="fill:none;stroke:#8ca2c0;stroke-width:2;stroke-linecap:round;stroke-linejoin:round"
   transform="matrix(0.06693441,0,0,0.06693441,280.48389,314.30339)" />
	<polyline
   points="356.8,202.3    344.2,205.3 333.9,204.5 336.9,202.8 337.5,199.8 332.8,195 332,191.5 327.8,190.9 324.7,192.8 323,189.9 320.9,193 313.1,193.9    313.1,193.9 309.9,182 306.4,182.7 303.9,180.3 302.5,174 295.6,167.9 295.1,155.7 290.9,148.3  "
   id="polyline46"
   style="fill:none;stroke:#8ca2c0;stroke-width:2;stroke-linecap:round;stroke-linejoin:round"
   transform="matrix(0.06693441,0,0,0.06693441,280.48389,314.30339)" />
	<polyline
   points="378.7,186.3    361.4,189.8 361.2,196.3 356.8,202.3  "
   id="polyline48"
   style="fill:none;stroke:#8ca2c0;stroke-width:2;stroke-linecap:round;stroke-linejoin:round"
   transform="matrix(0.06693441,0,0,0.06693441,280.48389,314.30339)" />
	<polyline
   points="356.8,202.3    364.3,210.8 364.8,217.2 359.6,222.7 360.8,226 359,228.7 353.1,232.4 356.5,235.6 359,243.4 355.8,244.1 354.1,246.8 356.3,254.1    354.4,260.6 357.5,263 361,271.5 361.3,278.1 363.8,280.3 363.5,286.9 362,296.9  "
   id="polyline50"
   style="fill:none;stroke:#8ca2c0;stroke-width:2;stroke-linecap:round;stroke-linejoin:round"
   transform="matrix(0.06693441,0,0,0.06693441,280.48389,314.30339)" />
	<path
   d="m 301.6017,342.60326 0.24766,-0.14719 -0.11379,-0.24766 0.23427,-0.087 0.0201,-0.25442 0.17409,-0.14719 -0.13386,-0.16733 0.56894,-0.7162 0.0468,-0.26105 0.46855,0.15395 -0.14719,-1.04417 0.13387,-0.18742 -0.0937,-0.41499 -0.33467,-0.415 0.70281,-0.64926 -0.17403,-0.5087 0.0402,-0.3079 -0.27443,-0.62249 c -0.18073,-0.12717 -0.36814,-0.24766 -0.55563,-0.36814 l -0.0803,-0.29451 v 0 l 0.26098,-0.44846 0.65595,-0.0736 0.12718,-0.18072 -0.12718,-0.40161 0.16734,-0.14056 0.63588,-0.21419 0.36144,-0.28112 h 0.30121"
   id="path52"
   inkscape:connector-curvature="0"
   style="fill:none;stroke:#8ca2c0;stroke-width:0.13386881;stroke-linecap:round;stroke-linejoin:round" />
	<polyline
   points="371.7,598.4    365.2,590.3 364.8,570.601 365.3,559.5 371.6,547.5 374.6,544.5 380.7,539.9 388.3,539.9 395.8,531.8 408.1,522.9 417.5,520.2    420.8,525.7 424.2,526.5 424.4,526.5  "
   id="polyline54"
   style="fill:none;stroke:#8ca2c0;stroke-width:2;stroke-linecap:round;stroke-linejoin:round"
   transform="matrix(0.06693441,0,0,0.06693441,280.48389,314.30339)" />
	<polyline
   points="326.4,322.9    320.9,322.7 317.8,323.6 302.9,320.6 300.8,323.4 287.9,324.6 284.8,327.8 282.9,325.1 276.4,326.3 273.4,325.1 275.2,321.9    272.4,320.5 269.4,314.4 266.2,314.4 260.9,309.5 261.9,303 251.5,288.3 251.3,284.8 245.2,281.5 246.9,284.7 235.6,285.2    232.5,283.6 231,276.8 227.7,277.1 227.4,273.5 221.3,269.9  "
   id="polyline56"
   style="fill:none;stroke:#8ca2c0;stroke-width:2;stroke-linecap:round;stroke-linejoin:round"
   transform="matrix(0.06693441,0,0,0.06693441,280.48389,314.30339)" />
	<polyline
   points="507,319.2    501.7,326.5 495.6,330.2 491.2,330.3 490.8,327.3 487,325.5 482.5,330.3 479.2,330.5 479.2,327.1 475.9,327.1 471.1,318.4    471,318.4 465.6,314.8 459.6,316.2 453,314.5 446.4,338 440,329.4 438.2,332 435.4,330.2 432.8,332.1 430.4,330.1 427.8,332.2    427.4,335.601 421,339.9 418.7,337.5 409.7,339.2 403.9,335.601 403.9,332.2 408.1,327 408.6,320.8 406.8,318.1 398,314.8    390.4,299.7 383.7,306.4 378.9,302.3 375.7,304.2 368.5,304 362,296.9  "
   id="polyline58"
   style="fill:none;stroke:#8ca2c0;stroke-width:2;stroke-linecap:round;stroke-linejoin:round"
   transform="matrix(0.06693441,0,0,0.06693441,280.48389,314.30339)" />
	<polyline
   points="461.9,465.5    457.4,466.9 455.2,464.4 456.6,461 459.6,458.5 464.6,461.5 461.9,465.5  "
   id="polyline60"
   style="fill:none;stroke:#8ca2c0;stroke-width:2;stroke-linecap:round;stroke-linejoin:round"
   transform="matrix(0.06693441,0,0,0.06693441,280.48389,314.30339)" />
	<polyline
   points="553.4,241.4    551.1,235.5 547.9,235.7 547.4,225.5 538.9,219.9 537.8,220.6 528.4,213.2 522.6,215.7 517.1,211.6 510.8,213.4 502.9,208.6    493.8,215.1 494.1,216.7 491.5,220.3 488.3,219.9 486,222.6 485.6,232 482.2,233.1 479.7,231.1 472.3,235.5 471,238.3  "
   id="polyline62"
   style="fill:none;stroke:#8ca2c0;stroke-width:2;stroke-linecap:round;stroke-linejoin:round"
   transform="matrix(0.06693441,0,0,0.06693441,280.48389,314.30339)" />
	
		<line
   x1="312.01001"
   y1="330.25388"
   x2="312.01001"
   y2="330.25388"
   id="line64"
   style="fill:none;stroke:#8ca2c0;stroke-width:0.13386881;stroke-linecap:round;stroke-linejoin:round" />
	
		<line
   x1="312.01001"
   y1="330.25388"
   x2="312.01001"
   y2="330.25388"
   id="line66"
   style="fill:none;stroke:#8ca2c0;stroke-width:0.13386881;stroke-linecap:round;stroke-linejoin:round" />
	
		<line
   x1="312.01001"
   y1="330.25388"
   x2="312.2175"
   y2="330.12668"
   id="line68"
   style="fill:none;stroke:#8ca2c0;stroke-width:0.13386881;stroke-linecap:round;stroke-linejoin:round" />
	<polyline
   points="236.9,113.7    229,115.5 223.6,120.2 212.7,123.3 203.2,119.3 189.2,117.7 178.5,114 172.5,116.6 165.3,104.8 168.1,96 166.9,92.9 159.6,92.1    156.8,94.1 149.5,94.6 136.7,89.4 136.5,92.6 140.2,94.6 140.8,100.1 138.6,102.4 141.5,113.8 151,124.1 149.5,135.4 151.7,138.6    151.1,145.3 148.6,151.7 153.3,162.2 156.2,163.7 159,161.9 157.9,165.2 150,166.1  "
   id="polyline70"
   style="fill:none;stroke:#8ca2c0;stroke-width:2;stroke-linecap:round;stroke-linejoin:round"
   transform="matrix(0.06693441,0,0,0.06693441,280.48389,314.30339)" />
	<polyline
   points="300.3,128.3    304.8,125.4 300.8,116 302.4,107 300.8,97.1 304.2,91.9 300.4,82.4 286.3,70.4 286.3,70.4  "
   id="polyline72"
   style="fill:none;stroke:#8ca2c0;stroke-width:2;stroke-linecap:round;stroke-linejoin:round"
   transform="matrix(0.06693441,0,0,0.06693441,280.48389,314.30339)" />
	<polyline
   points="286.3,70.4    286.1,70.7 273.9,79.2 249.1,85.4 233.1,94 226.6,108.2 228.5,110.7 238.4,112.9  "
   id="polyline74"
   style="fill:none;stroke:#8ca2c0;stroke-width:2;stroke-linecap:round;stroke-linejoin:round"
   transform="matrix(0.06693441,0,0,0.06693441,280.48389,314.30339)" />
	<polyline
   points="238.4,112.9    238.6,113 236.9,113.7  "
   id="polyline76"
   style="fill:none;stroke:#8ca2c0;stroke-width:2;stroke-linecap:round;stroke-linejoin:round"
   transform="matrix(0.06693441,0,0,0.06693441,280.48389,314.30339)" />
	<polyline
   points="238.4,112.9    236.9,113.6 236.9,113.7  "
   id="polyline78"
   style="fill:none;stroke:#8ca2c0;stroke-width:2;stroke-linecap:round;stroke-linejoin:round"
   transform="matrix(0.06693441,0,0,0.06693441,280.48389,314.30339)" />
	<polyline
   points="150,166.1    137,166.1 137.3,159.8 133.7,160.6 129.2,164.9 132.1,171.2 129.5,169.1 127.5,164.1 124.3,164.1 124.3,166.2 119.7,166.6    118.6,163.1 115.2,164.7 114,161.8 110,162.1 97.9,172.1 96.9,168 92.4,165.1 92.3,161.6 87.2,152.8 83.9,152.1 84.6,148.9    81.2,149.3 79.3,152.6 80.8,145.2 75.5,148.8 74.9,144.8 65,148.9 63.4,146.2 58.3,150.3 57.9,157.2 54.3,157.8 48.8,154.4    45.6,155.1 44.9,158.9 42.4,155.9 40.6,159.5 40.5,152.2 24.3,157.1 22.6,154.1 11.2,160.3 14.1,161.8 4.7,160.8 2.6,163.5    1,173.6 3,176.2 6.1,174.9 9,176.3 22.8,172.2 18.6,174.2 18,178 24.7,176.4 24.2,179.6 27.5,181 24,181.7 31.1,184.7 24.4,183.1    22.8,180.3 18.6,181.5 12.1,180.2 10.2,177.5 8.5,181.6 11.2,187.5 13.2,184.4 16.3,184.7 22.4,188.2 23.4,191.8 21.6,194.6    18.9,193.1 4.7,194.5 3,197.3 13.7,201.3 17.9,208.3 16.7,214.5 24.9,215.2 29,210.5 29,210.1  "
   id="polyline80"
   style="fill:none;stroke:#8ca2c0;stroke-width:2;stroke-linecap:round;stroke-linejoin:round"
   transform="matrix(0.06693441,0,0,0.06693441,280.48389,314.30339)" />
	<polyline
   points="29,210.1    32.3,212.3 37.5,210.4 42.8,217.1 46,216.4 46,213.2 46.4,216.3 46.4,216.4 49.3,215.3 48.6,218.5 51.8,219.2 56.1,217.5    56.3,214.1 57.1,222.7 59.9,224.5 63,223 63,222.9 62.5,216.4 63.1,219.8 66.4,220.4 64,222.8 65.7,225.8 69.8,227.5 72.8,226.2    70,227.6 70.4,230.7 72.8,233.9 71.9,238 74.3,240.6 73,237.4 76,234.7 79.6,233.9 82.3,235.9 80.9,229.3 84.4,234.8 86.1,231.9    90.2,232.6 92.6,235.3 90.4,238.1 83.3,237.2 88.7,241.4 102.6,240.3 105.7,242 102.3,242.2 104.1,245.1  "
   id="polyline82"
   style="fill:none;stroke:#8ca2c0;stroke-width:2;stroke-linecap:round;stroke-linejoin:round"
   transform="matrix(0.06693441,0,0,0.06693441,280.48389,314.30339)" />
	<polyline
   points="172.4,175.1    172.3,188.7 170.6,191.3 172.7,210.8 166.5,213.3 162.5,223 162,225.4 154.3,221.4 144.2,225.8 142.4,229 127.7,229.5 121.8,233.3    121.4,240 104.1,245.1  "
   id="polyline84"
   style="fill:none;stroke:#8ca2c0;stroke-width:2;stroke-linecap:round;stroke-linejoin:round"
   transform="matrix(0.06693441,0,0,0.06693441,280.48389,314.30339)" />
	<polyline
   points="29.3,206.6    31.3,206.3 29.7,203.1 29.3,206.6  "
   id="polyline86"
   style="fill:none;stroke:#8ca2c0;stroke-width:2;stroke-linecap:round;stroke-linejoin:round"
   transform="matrix(0.06693441,0,0,0.06693441,280.48389,314.30339)" />
	<polyline
   points="413.8,77.3    414.7,83.7 413.2,87.6 414.7,91.1 409.1,99.2 406,99.5 406.3,115.6 405.3,118.7 399.2,116.6 390.3,121.1 388.9,124.1 392.5,133.2    386.4,135.7 388.2,138.4 387.2,141.5 390,142.9 381.5,154.3  "
   id="polyline88"
   style="fill:none;stroke:#8ca2c0;stroke-width:2;stroke-linecap:round;stroke-linejoin:round"
   transform="matrix(0.06693441,0,0,0.06693441,280.48389,314.30339)" />
	
		<line
   x1="282.42499"
   y1="328.3663"
   x2="282.44507"
   y2="328.13205"
   id="line90"
   style="fill:none;stroke:#8ca2c0;stroke-width:0.13386881;stroke-linecap:round;stroke-linejoin:round" />
	<polyline
   points="111.6,274.7    109.5,277.2 116.3,283.8 116.1,280.2 112.7,278.2 111.6,274.7  "
   id="polyline92"
   style="fill:none;stroke:#8ca2c0;stroke-width:2;stroke-linecap:round;stroke-linejoin:round"
   transform="matrix(0.06693441,0,0,0.06693441,280.48389,314.30339)" />
	<polyline
   points="104.1,245.1    99.1,250 101.8,256.9 108.6,258.1 110.9,260.3 116.4,256.2 124.5,255.5 116.9,258.4 116.2,265.9 112.8,267.3 119.5,269.7    124.9,275.3 116.1,284.6 116.6,289.6 128.3,303.3 130.6,311.2 139.7,318.8 145.1,320 146.8,324 153.6,325.3 158.8,329.6    159.6,326.5 162.8,327  "
   id="polyline94"
   style="fill:none;stroke:#8ca2c0;stroke-width:2;stroke-linecap:round;stroke-linejoin:round"
   transform="matrix(0.06693441,0,0,0.06693441,280.48389,314.30339)" />
	<polyline
   points="74.9,252.3    69.2,248.5 66,248.9 67,252.6 70.5,253.7 74.9,252.3  "
   id="polyline96"
   style="fill:none;stroke:#8ca2c0;stroke-width:2;stroke-linecap:round;stroke-linejoin:round"
   transform="matrix(0.06693441,0,0,0.06693441,280.48389,314.30339)" />
	<polyline
   points="146.7,332.6    143.9,330.2 144,330.4  "
   id="polyline98"
   style="fill:none;stroke:#8ca2c0;stroke-width:2;stroke-linecap:round;stroke-linejoin:round"
   transform="matrix(0.06693441,0,0,0.06693441,280.48389,314.30339)" />
	<polyline
   points="144,330.4    143.7,330.2 145,333.2 145.8,332.9  "
   id="polyline100"
   style="fill:none;stroke:#8ca2c0;stroke-width:2;stroke-linecap:round;stroke-linejoin:round"
   transform="matrix(0.06693441,0,0,0.06693441,280.48389,314.30339)" />
	<polyline
   points="290.9,148.3    288.9,141.7 291.6,138.9 295.9,138.9 300.3,128.3  "
   id="polyline102"
   style="fill:none;stroke:#8ca2c0;stroke-width:2;stroke-linecap:round;stroke-linejoin:round"
   transform="matrix(0.06693441,0,0,0.06693441,280.48389,314.30339)" />
	<polyline
   points="257.9,199.5    257.8,199.5 256.6,191.1 265.1,185.3 264.5,180.2 264.7,175.1 259.4,170.2 259.2,166.6 261.9,163.7 268.6,162.5 274.6,158.9    277.8,160.7 284.5,159.2 284.2,156.1 290.9,148.3  "
   id="polyline104"
   style="fill:none;stroke:#8ca2c0;stroke-width:2;stroke-linecap:round;stroke-linejoin:round"
   transform="matrix(0.06693441,0,0,0.06693441,280.48389,314.30339)" />
	<polyline
   points="257.9,199.5    257.8,199.5 254.3,198.7 250.7,194.8 247.5,195.9 239.4,190.3 237.6,180.9 234.5,179.2 222.2,185.7 218.8,185.6 218.8,182.3    215.2,180.6 213,173.8 209.9,173.5 209.1,176.6 198.9,176.6 191.3,180.3 188.5,178.4 185.8,180.2 182.1,176 172.4,175.1  "
   id="polyline106"
   style="fill:none;stroke:#8ca2c0;stroke-width:2;stroke-linecap:round;stroke-linejoin:round"
   transform="matrix(0.06693441,0,0,0.06693441,280.48389,314.30339)" />
	<polyline
   points="221.3,269.9    221.3,269.8 227.7,252.6 229.6,242.2 230.5,239.5 237.3,242.4 236.8,238.7 239.9,239 248.5,234 249.2,230 252.8,228.9 259.8,216.9    259.4,210.7 257.4,208.2 259.7,205.9 259.7,205.8 260.2,203.8 257.9,199.5  "
   id="polyline108"
   style="fill:none;stroke:#8ca2c0;stroke-width:2;stroke-linecap:round;stroke-linejoin:round"
   transform="matrix(0.06693441,0,0,0.06693441,280.48389,314.30339)" />
	<polyline
   points="150,166.1    155.3,176.8 158.3,177.8 166.3,172.5 172.4,175.1  "
   id="polyline110"
   style="fill:none;stroke:#8ca2c0;stroke-width:2;stroke-linecap:round;stroke-linejoin:round"
   transform="matrix(0.06693441,0,0,0.06693441,280.48389,314.30339)" />
	<polyline
   points="221.3,269.9    213.8,276.6 211.3,274 200.4,274.2 194.1,275.1 190,280.5 176.2,281.4 178.7,287.8 183.5,292.4 188.8,312.5 188.5,320.9    191.3,323.1 181.1,328.1 178.5,326.1 171.2,326.4 172.7,323.1 162.8,327  "
   id="polyline112"
   style="fill:none;stroke:#8ca2c0;stroke-width:2;stroke-linecap:round;stroke-linejoin:round"
   transform="matrix(0.06693441,0,0,0.06693441,280.48389,314.30339)" />
	<polyline
   points="146.7,332.6    146.7,332.6 146.6,332.7  "
   id="polyline114"
   style="fill:none;stroke:#8ca2c0;stroke-width:2;stroke-linecap:round;stroke-linejoin:round"
   transform="matrix(0.06693441,0,0,0.06693441,280.48389,314.30339)" />
	<polyline
   points="146.6,332.7    146.5,332.6 146.7,332.6  "
   id="polyline116"
   style="fill:none;stroke:#8ca2c0;stroke-width:2;stroke-linecap:round;stroke-linejoin:round"
   transform="matrix(0.06693441,0,0,0.06693441,280.48389,314.30339)" />
	
		<line
   x1="290.24292"
   y1="336.58585"
   x2="290.28979"
   y2="336.57248"
   id="line118"
   style="fill:none;stroke:#8ca2c0;stroke-width:0.13386881;stroke-linecap:round;stroke-linejoin:round" />
	
		<line
   x1="290.28979"
   y1="336.57248"
   x2="290.29648"
   y2="336.57248"
   id="line120"
   style="fill:none;stroke:#8ca2c0;stroke-width:0.13386881;stroke-linecap:round;stroke-linejoin:round" />
	<polyline
   points="145.8,332.9    145.1,333.2 144,330.4  "
   id="polyline122"
   style="fill:none;stroke:#8ca2c0;stroke-width:2;stroke-linecap:round;stroke-linejoin:round"
   transform="matrix(0.06693441,0,0,0.06693441,280.48389,314.30339)" />
	<polyline
   points="146.6,332.7    151.6,337.2 154.9,335.8 148.8,331.9 146.7,332.6  "
   id="polyline124"
   style="fill:none;stroke:#8ca2c0;stroke-width:2;stroke-linecap:round;stroke-linejoin:round"
   transform="matrix(0.06693441,0,0,0.06693441,280.48389,314.30339)" />
	
		<line
   x1="290.12244"
   y1="336.41852"
   x2="290.28979"
   y2="336.57248"
   id="line126"
   style="fill:none;stroke:#8ca2c0;stroke-width:0.13386881;stroke-linecap:round;stroke-linejoin:round" />
	<polyline
   points="315.5,422.8    307.9,422.601 302,425.601 294.4,418.8 285.4,419.601 284.6,425.3 283,431.3 277.9,434.9 278.7,438.9 271.9,442.7 266.6,449.9    262.8,453.5 265.8,463.7 257.4,465.9 257.4,469.2 260.1,470.8 255.1,476.9 256.6,480 253.4,479.7 249.4,485 246.4,486.5    236.8,485.4 231.1,488.601 221.8,487.801 220.2,490.601 216,489.9 216,490 215.7,493.2 212.9,494.7 212.1,491.301 201.7,494.4    202.2,501.5 197.4,514 199.2,517 206.6,517.4 206.6,517.4 209.4,523.9 207.8,527 211,527 211.6,535.2 208.6,536.8 209.5,540.2    200.4,550.601 200.9,553.9 197.1,554.8 195.3,558 193.9,567.601 193.9,567.7  "
   id="polyline128"
   style="fill:none;stroke:#8ca2c0;stroke-width:2;stroke-linecap:round;stroke-linejoin:round"
   transform="matrix(0.06693441,0,0,0.06693441,280.48389,314.30339)" />
	<polyline
   points="151,346.2    149.1,349.3 156.3,361.9 157.8,358.3 156.8,350 151,346.2  "
   id="polyline130"
   style="fill:none;stroke:#8ca2c0;stroke-width:2;stroke-linecap:round;stroke-linejoin:round"
   transform="matrix(0.06693441,0,0,0.06693441,280.48389,314.30339)" />
	<polyline
   points="162.8,327    157.7,337.8 161,338.8 165.6,347.8 162.5,348.3 164.3,354.3 161,360.8 155.7,364.4 157.1,369.3 165.9,374.8 177.6,387.3 180,395.7    180,395.8 180.6,398.8 178.2,402.601 175.4,393.8 163.4,382 162.3,378.9 159,385.3 152.1,441.7 156.5,432.9 161.5,438.7    161.8,441.9 154.6,440.9 151,448.601 151.1,453.9 138.8,510.101 134.5,518.101 134.4,518.101 129.3,525.2 122.2,530.4  "
   id="polyline132"
   style="fill:none;stroke:#8ca2c0;stroke-width:2;stroke-linecap:round;stroke-linejoin:round"
   transform="matrix(0.06693441,0,0,0.06693441,280.48389,314.30339)" />
	<polyline
   points="381.5,154.3    371,147.6 366.6,142.9 367.3,139.7 365.4,136.9 362.4,136.1 353.3,139.4 350.5,137.6 348.2,140.1 340.5,138.9 328.3,131.8    325.8,133.6 315.5,131.1 308.4,133.2 302.1,131.9 300.3,128.3  "
   id="polyline134"
   style="fill:none;stroke:#8ca2c0;stroke-width:2;stroke-linecap:round;stroke-linejoin:round"
   transform="matrix(0.06693441,0,0,0.06693441,280.48389,314.30339)" />
	<polyline
   points="335.6,1    317.3,5.6 301.9,10.4 295.4,16 295.4,36.2 298.7,40.1 295.6,38.2 294.8,44.8 295.3,49.1 297.9,50.9 293.7,52.5 293.3,55.9    296.7,62.1 293.6,60.4 286.3,70.4  "
   id="polyline136"
   style="fill:none;stroke:#8ca2c0;stroke-width:2;stroke-linecap:round;stroke-linejoin:round"
   transform="matrix(0.06693441,0,0,0.06693441,280.48389,314.30339)" />
	<polyline
   points="538.8,408    538.8,408 532,409.3 529.7,411.5 521,407.601 519.3,411.9 521.2,416.601 526.1,420.101 525.7,426.7 522.3,425.4 508.1,429.7    507.1,432.9 500.9,434.3 499.8,437.7 499.4,441.5 493,441.9 490.2,449.5 493.5,452 490.7,454.8 486.1,453.2 482.4,458.9    484.1,461.9 495.3,468.3 495.1,473.601 494,473.801 491.4,473.9 486.6,479.301 480.7,476.7 480.6,473.5 470.1,472.601    469.6,466.101 466.8,468.601 464.1,467 454.3,471.4 450.3,466.601 443.8,465.8 443.9,469.9  "
   id="polyline138"
   style="fill:none;stroke:#8ca2c0;stroke-width:2;stroke-linecap:round;stroke-linejoin:round"
   transform="matrix(0.06693441,0,0,0.06693441,280.48389,314.30339)" />
	<polyline
   points="474.2,523.7    471.7,527.9 468.1,529.2 463,524.4 463.6,520.601 468.1,520.601 470.5,525.2 474.2,523.7  "
   id="polyline140"
   style="fill:none;stroke:#8ca2c0;stroke-width:2;stroke-linecap:round;stroke-linejoin:round"
   transform="matrix(0.06693441,0,0,0.06693441,280.48389,314.30339)" />
	<polyline
   points="29.3,206.6    28.1,206.8 29,210 29,210.1  "
   id="polyline142"
   style="fill:none;stroke:#8ca2c0;stroke-width:2;stroke-linecap:round;stroke-linejoin:round"
   transform="matrix(0.06693441,0,0,0.06693441,280.48389,314.30339)" />
	<polyline
   points="424.4,526.5    440.5,527 442.7,529.8 442.2,532.9 446.3,533.9 457.2,532.601 454.7,530 456.1,527.2 459.2,527.5 464.4,533.601 479.2,531.9    483.6,541.8 494.5,544.5 497.6,543.5 497.8,543.7 504.7,547.7 504.3,550.8 514.3,547.9 521,549.7 522.3,552.9 524.6,546.7    532.9,548.101 533,544.9 539.3,543.5 542.3,540.7 546.6,541.101 549.1,535 545.1,533.2 552,524.101 558.1,523.3 563,514.601    569.4,511.601 570.6,506.9 586.8,498.101  "
   id="polyline144"
   style="fill:none;stroke:#8ca2c0;stroke-width:2;stroke-linecap:round;stroke-linejoin:round"
   transform="matrix(0.06693441,0,0,0.06693441,280.48389,314.30339)" />
	<polyline
   points="443.9,469.9    437.1,466.101 434,466.101 431.2,468.601 431,465.101 423.1,470 414.4,464.4 406.5,448.4 404.2,438.2 394.1,429.601 390.9,429.3    390.7,432.5 383.5,431.101 381.8,424.7 379.3,422.8 370.6,430.3 368.6,427.8 360.8,445.601 357.9,439.9 358.5,436.5 355.8,434.7    354.4,430 348.5,425.5 343.2,430.3 339.8,440.4 335.5,445.9 328.4,444.101 322.6,447.7 318.9,442.101 320.9,435.7 316.6,428.9    315.5,422.8  "
   id="polyline146"
   style="fill:none;stroke:#8ca2c0;stroke-width:2;stroke-linecap:round;stroke-linejoin:round"
   transform="matrix(0.06693441,0,0,0.06693441,280.48389,314.30339)" />
	<polyline
   points="424.4,526.5    428.7,519.9 435.2,517.9 434.1,514.801 438.8,509.4 442.5,510.4 444.6,498.5 454.1,488.301 447,481.101 446.8,475 443.9,469.9  "
   id="polyline148"
   style="fill:none;stroke:#8ca2c0;stroke-width:2;stroke-linecap:round;stroke-linejoin:round"
   transform="matrix(0.06693441,0,0,0.06693441,280.48389,314.30339)" />
	
	<g
   id="g160"
   transform="matrix(0.06693441,0,0,0.06693441,280.48389,314.30339)">
		<path
   d="m 526.3,548.8 c 0,0 -0.1,0 -0.2,0 v 0 c -0.1,0 -0.1,0 -0.1,0 l -0.1,0.101 c 0,0 0,0 -0.101,0.1 0,0 0,0 0,0.101 v 0.1 c 0,0.1 0,0.2 0,0.2 0,0.1 0.101,0.1 0.101,0.1 0,0.101 0.1,0.101 0.1,0.101 0.1,0 0.1,0 0.1,0 0.101,0 0.101,0 0.101,0 0.1,0 0.1,0 0.1,0 0,0 0,0 0.101,0 v 0 -0.103 H 526.3 c 0,0 -0.1,0 -0.2,0 v 0 c -0.1,0 -0.1,0 -0.1,-0.1 0,0 -0.1,0 -0.1,-0.101 0,0 0,0 0,-0.1 v -0.1 C 525.9,549 526,549 526,549 c 0,-0.1 0.1,-0.1 0.1,-0.1 v 0 c 0.101,0 0.101,0 0.2,0 0,0 0,0 0.101,0 v -0.1 z"
   id="path152"
   inkscape:connector-curvature="0"
   style="fill:#666666" />
		<path
   d="m 527,548.9 c 0.1,0 0.1,0 0.1,0 0,0.1 0,0.1 0,0.1 v 0.101 0.5 h 0.2 V 549 c 0,0 0.101,0 0.101,-0.1 h 0.1 c 0.1,0 0.1,0 0.1,0 v 0 c 0,0.1 0,0.1 0,0.1 v 0.101 0.5 h 0.2 v -0.5 c 0,-0.101 0,-0.101 0,-0.2 0,0 0,0 -0.1,-0.101 H 527.6 v 0 c -0.1,0 -0.199,0 -0.199,0 -0.101,0.1 -0.101,0.1 -0.101,0.1 -0.1,0 -0.1,0 -0.2,-0.101 0,0 0,0 -0.1,0 h -0.1 c 0,0 0,0 -0.101,0 0,0 0,0 0,0.101 0,0 0,0 -0.1,0 v 0 -0.1 H 526.6 v 0.801 h 0.101 V 549 c 0.1,0 0.1,0 0.1,-0.1 0.099,0 0.099,0 0.199,0 z"
   id="path154"
   inkscape:connector-curvature="0"
   style="fill:#666666" />
		<path
   d="m 528.3,548.8 h -0.1 -0.1 v 0 0.101 h 0.101 c 0.1,0 0.1,0 0.1,0 0.101,0 0.2,0 0.2,0 l 0.1,0.1 v 0 c 0,0.101 0,0.101 0,0.101 v 0.1 0 c -0.1,-0.1 -0.1,-0.1 -0.1,-0.1 -0.1,0 -0.1,0 -0.1,0 -0.101,0 -0.101,0 -0.2,0 l -0.101,0.1 c 0,0 0,0 0,0.1 0,0 -0.1,0 -0.1,0.101 l 0.1,0.1 v 0.101 c 0,0 0,0 0.101,0 h 0.1 c 0.101,0 0.101,0 0.101,0 h 0.1 v 0 c 0.1,0 0.1,-0.101 0.1,-0.101 v 0.101 h 0.101 v -0.5 c 0,-0.101 0,-0.101 0,-0.101 0,0 -0.101,0 -0.101,-0.1 0,0 0,0 0,-0.101 -0.1,0 -0.1,0 -0.199,0 C 528.3,548.8 528.3,548.8 528.3,548.8 Z m 0.3,0.5 v 0.101 c 0,0 0,0 0,0.1 -0.1,0 -0.1,0 -0.1,0 0,0 0,0 -0.1,0 0,0 0,0 -0.101,0 v 0 h -0.1 c 0,0 0,0 0,-0.1 -0.101,0 -0.101,0 -0.101,0 0,-0.101 0.101,-0.101 0.101,-0.101 0.1,-0.1 0.1,-0.1 0.2,-0.1 h 0.1 c 10e-4,0 0.101,0 0.101,0.1 z"
   id="path156"
   inkscape:connector-curvature="0"
   style="fill:#666666" />
		<path
   d="m 529.6,549 v -0.1 c 0,-0.101 -0.1,-0.101 -0.1,-0.101 0,0 -0.1,0 -0.2,0 v 0 c -0.1,0 -0.1,0 -0.2,0 0,0 0,0 0,0.101 v 0 0 -0.1 H 529 v 1.2 h 0.1 v -0.5 c 0,0.101 0,0.101 0.101,0.101 h 0.1 c 0.101,0 0.101,0 0.101,0 0.1,0 0.1,0 0.1,0 h 0.1 c 0,-0.101 0,-0.101 0,-0.101 0,-0.1 0,-0.1 0,-0.1 0.101,-0.101 0.101,-0.101 0.101,-0.2 0,-0.099 -0.003,-0.099 -0.103,-0.2 z m -0.3,-0.1 c 0.101,0 0.101,0 0.101,0 0.1,0 0.1,0 0.1,0.1 0,0 0,0 0.1,0.101 v 0.1 c 0,0.1 0,0.1 0,0.2 -0.1,0 -0.1,0 -0.1,0.1 h -0.1 -0.101 -0.1 c -0.101,0 -0.101,0 -0.101,-0.1 V 549 v 0 -0.1 c 0.101,0 0.101,0 0.101,0 0.1,0 0.1,0 0.1,0 z"
   id="path158"
   inkscape:connector-curvature="0"
   style="fill:#666666" />
	</g>
</g>
</svg>